<?xml version="1.0" encoding="UTF-8"?>
<svg id="Camada_2" xmlns="http://www.w3.org/2000/svg" viewBox="0 0 4400.05 1642.21">
  <defs>
    <style>
      .cls-1 {
        letter-spacing: .18em;
      }

      .cls-2 {
        font-family: RalewayRoman-Light, Raleway;
        font-size: 150px;
        font-variation-settings: 'wght' 300;
        font-weight: 300;
      }

      .cls-2, .cls-3 {
        fill: #5e130f;
      }

      .cls-4 {
        fill: none;
        stroke: #5e130f;
        stroke-miterlimit: 10;
        stroke-width: 3px;
      }

      .cls-5 {
        letter-spacing: .2em;
      }
    </style>
  </defs>
  <g id="Camada_1-2" data-name="Camada_1">
    <g>
      <g>
        <path class="cls-3" d="M2328.35,969.95c3.2,0,6.4.6,9.6,1.8,3.2,1.2,6.26,3.27,9.2,6.2l53.6,56.4c-23.47,30.67-52.87,53.8-88.2,69.4-35.34,15.6-77.14,23.4-125.4,23.4-44.27,0-83.94-7.53-119-22.6-35.07-15.06-64.8-35.86-89.2-62.4-24.4-26.53-43.14-58-56.2-94.4-13.07-36.4-19.6-75.93-19.6-118.6s7.06-83.4,21.2-119.8c14.13-36.4,34-67.8,59.6-94.2,25.6-26.4,56.26-46.93,92-61.6,35.73-14.66,75.06-22,118-22,21.86,0,42.46,1.94,61.8,5.8,19.33,3.87,37.4,9.2,54.2,16,16.8,6.8,32.26,15,46.4,24.6,14.13,9.6,26.66,20,37.6,31.2l-45.6,61.2c-2.94,3.74-6.4,7.14-10.4,10.2-4,3.07-9.6,4.6-16.8,4.6-4.8,0-9.34-1.06-13.6-3.2-4.27-2.13-8.8-4.73-13.6-7.8-4.8-3.06-10.07-6.4-15.8-10-5.74-3.6-12.54-6.93-20.4-10-7.87-3.06-17.07-5.66-27.6-7.8-10.54-2.13-22.87-3.2-37-3.2-22.4,0-42.87,4.14-61.4,12.4-18.54,8.27-34.54,20.34-48,36.2-13.47,15.87-23.87,35.34-31.2,58.4-7.34,23.07-11,49.4-11,79s4.06,56.4,12.2,79.6c8.13,23.2,19.2,42.74,33.2,58.6,14,15.87,30.33,27.94,49,36.2,18.66,8.27,38.66,12.4,60,12.4,12.26,0,23.46-.6,33.6-1.8,10.13-1.2,19.6-3.2,28.4-6,8.8-2.8,17.06-6.53,24.8-11.2,7.73-4.66,15.6-10.6,23.6-17.8,3.2-2.66,6.66-4.86,10.4-6.6,3.73-1.73,7.6-2.6,11.6-2.6Z"/>
        <path class="cls-3" d="M2408.34,763.55c25.06-22.13,52.86-38.6,83.4-49.4,30.53-10.8,63.26-16.2,98.2-16.2,25.06,0,47.66,4.07,67.8,12.2,20.13,8.14,37.2,19.47,51.2,34,14,14.54,24.73,31.8,32.2,51.8,7.46,20,11.2,41.87,11.2,65.6v259.2h-56.8c-11.74,0-20.6-1.6-26.6-4.8s-11-9.86-15-20l-8.8-22.8c-10.4,8.8-20.4,16.54-30,23.2-9.6,6.67-19.54,12.34-29.8,17-10.27,4.67-21.2,8.13-32.8,10.4-11.6,2.26-24.47,3.4-38.6,3.4-18.94,0-36.14-2.47-51.6-7.4-15.47-4.93-28.6-12.2-39.4-21.8-10.8-9.6-19.14-21.53-25-35.8-5.87-14.26-8.8-30.73-8.8-49.4,0-14.93,3.73-30.06,11.2-45.4,7.46-15.33,20.4-29.33,38.8-42,18.4-12.66,43.2-23.26,74.4-31.8,31.2-8.53,70.53-13.33,118-14.4v-17.6c0-24.26-5-41.8-15-52.6s-24.2-16.2-42.6-16.2c-14.67,0-26.67,1.6-36,4.8-9.34,3.2-17.67,6.8-25,10.8-7.34,4-14.47,7.6-21.4,10.8-6.94,3.2-15.2,4.8-24.8,4.8-8.54,0-15.74-2.13-21.6-6.4-5.87-4.26-10.67-9.33-14.4-15.2l-22.4-38.8ZM2631.54,951.95c-24.8,1.07-45.2,3.2-61.2,6.4-16,3.2-28.67,7.2-38,12-9.34,4.8-15.8,10.27-19.4,16.4-3.6,6.14-5.4,12.8-5.4,20,0,14.14,3.86,24.07,11.6,29.8,7.73,5.74,19.06,8.6,34,8.6,16,0,30-2.8,42-8.4,12-5.6,24.13-14.66,36.4-27.2v-57.6Z"/>
        <path class="cls-3" d="M2919.93,757.15c16.26-17.33,34.73-31.53,55.4-42.6,20.66-11.06,45.26-16.6,73.8-16.6,21.6,0,41.6,4.8,60,14.4,18.4,9.6,34.26,23.47,47.6,41.6,13.33,18.14,23.8,40.34,31.4,66.6,7.6,26.27,11.4,56.07,11.4,89.4,0,31.2-4.34,60-13,86.4-8.67,26.4-20.8,49.34-36.4,68.8-15.6,19.47-34.27,34.67-56,45.6-21.74,10.93-45.8,16.4-72.2,16.4-21.6,0-39.74-3.07-54.4-9.2-14.67-6.13-28-14.4-40-24.8v159.2h-124v-546.4h76.8c15.46,0,25.6,6.94,30.4,20.8l9.2,30.4ZM2927.53,1007.95c9.33,10.14,19.46,17.34,30.4,21.6,10.93,4.27,22.4,6.4,34.4,6.4s22-2.26,31.6-6.8c9.6-4.53,17.93-11.8,25-21.8,7.06-10,12.6-23,16.6-39s6-35.46,6-58.4-1.6-40.26-4.8-55.2c-3.2-14.93-7.67-27-13.4-36.2-5.74-9.2-12.6-15.8-20.6-19.8s-16.94-6-26.8-6c-18.14,0-33.07,3.34-44.8,10-11.74,6.67-22.94,16.4-33.6,29.2v176Z"/>
        <path class="cls-3" d="M3362.32,705.95v414.8h-124v-414.8h124ZM3362.23,625.71h-98.91c-13.81,0-25,11.19-25,25v36.96h123.91v-61.96Z"/>
        <path class="cls-3" d="M3569.52,1127.15c-19.74,0-37.14-2.87-52.2-8.6-15.07-5.73-27.74-13.86-38-24.4-10.27-10.53-18.07-23.26-23.4-38.2-5.34-14.93-8-31.6-8-50v-214.4h-35.2c-6.4,0-11.87-2.06-16.4-6.2-4.54-4.13-6.8-10.2-6.8-18.2v-48.4l66-12.8,24.4-101.2c3.2-12.8,12.26-19.2,27.2-19.2h64.8v121.2h102.8v84.8h-102.8v206c0,9.6,2.33,17.54,7,23.8,4.66,6.27,11.4,9.4,20.2,9.4,4.53,0,8.33-.46,11.4-1.4,3.06-.93,5.73-2,8-3.2,2.26-1.2,4.4-2.26,6.4-3.2,2-.93,4.33-1.4,7-1.4,3.73,0,6.73.87,9,2.6,2.26,1.74,4.6,4.47,7,8.2l37.6,58.8c-16,12-34,21-54,27s-40.67,9-62,9Z"/>
        <path class="cls-3" d="M3691.11,763.55c25.06-22.13,52.86-38.6,83.4-49.4,30.53-10.8,63.26-16.2,98.2-16.2,25.06,0,47.66,4.07,67.8,12.2,20.13,8.14,37.2,19.47,51.2,34,14,14.54,24.73,31.8,32.2,51.8,7.46,20,11.2,41.87,11.2,65.6v259.2h-56.8c-11.74,0-20.6-1.6-26.6-4.8s-11-9.86-15-20l-8.8-22.8c-10.4,8.8-20.4,16.54-30,23.2-9.6,6.67-19.54,12.34-29.8,17-10.27,4.67-21.2,8.13-32.8,10.4-11.6,2.26-24.47,3.4-38.6,3.4-18.94,0-36.14-2.47-51.6-7.4-15.47-4.93-28.6-12.2-39.4-21.8-10.8-9.6-19.14-21.53-25-35.8-5.87-14.26-8.8-30.73-8.8-49.4,0-14.93,3.73-30.06,11.2-45.4,7.46-15.33,20.4-29.33,38.8-42,18.4-12.66,43.2-23.26,74.4-31.8,31.2-8.53,70.53-13.33,118-14.4v-17.6c0-24.26-5-41.8-15-52.6s-24.2-16.2-42.6-16.2c-14.67,0-26.67,1.6-36,4.8-9.34,3.2-17.67,6.8-25,10.8-7.34,4-14.47,7.6-21.4,10.8-6.94,3.2-15.2,4.8-24.8,4.8-8.54,0-15.74-2.13-21.6-6.4-5.87-4.26-10.67-9.33-14.4-15.2l-22.4-38.8ZM3914.31,951.95c-24.8,1.07-45.2,3.2-61.2,6.4-16,3.2-28.67,7.2-38,12-9.34,4.8-15.8,10.27-19.4,16.4-3.6,6.14-5.4,12.8-5.4,20,0,14.14,3.86,24.07,11.6,29.8,7.73,5.74,19.06,8.6,34,8.6,16,0,30-2.8,42-8.4,12-5.6,24.13-14.66,36.4-27.2v-57.6Z"/>
        <path class="cls-3" d="M4210.3,521.95v598.8h-124v-598.8h124Z"/>
      </g>
      <text class="cls-2" transform="translate(1898.75 1463.95)"><tspan class="cls-5" x="0" y="0">SE</tspan><tspan class="cls-1" x="242.55" y="0">R</tspan><tspan class="cls-5" x="367.2" y="0">VIÇOS FINANCEIROS</tspan></text>
      <g>
        <path class="cls-3" d="M1233.04,686.63c-14.53-16.6-32.31-29.32-53.33-38.18-21.03-8.85-44.96-13.28-71.79-13.28s-51.25,4.43-72.42,13.28c-21.17,8.86-39.01,21.58-53.54,38.18-14.52,16.6-25.67,36.87-33.41,60.8-7.75,23.93-11.62,50.84-11.62,80.72s3.87,57.21,11.62,81.13c7.74,23.93,18.88,44.2,33.41,60.8s32.37,29.26,53.54,37.97c21.17,8.71,45.3,13.07,72.42,13.07s50.77-4.36,71.79-13.07c21.02-8.72,38.8-21.37,53.33-37.97,14.52-16.6,25.66-36.86,33.41-60.8,7.74-23.93,11.62-50.97,11.62-81.13s-3.88-56.78-11.62-80.72c-7.75-23.93-18.88-44.2-33.41-60.8Z"/>
        <path class="cls-3" d="M1667.33,635.79c-11.9-4.01-25.46-6.02-40.67-6.02-26.29,0-45.86,5.6-58.72,16.81-12.86,11.21-19.3,26.35-19.3,45.44,0,12.18,3.87,22.27,11.62,30.29,7.74,8.03,17.91,14.94,30.5,20.75,12.59,5.81,26.98,11.14,43.16,15.98,16.18,4.84,32.71,10.24,49.59,16.19,10.88,3.84,21.63,8.12,32.23,12.82v-129.77c-5.16-2.8-10.71-5.8-16.66-9-9.27-4.98-19.85-9.47-31.75-13.49Z"/>
        <path class="cls-3" d="M1693.69,1121.76c-26.98,10.38-57.62,15.56-91.92,15.56-18.82,0-37.97-1.94-57.48-5.81s-38.39-9.34-56.65-16.39c-18.26-7.06-35.42-15.42-51.46-25.11-16.05-9.68-30.02-20.47-41.92-32.37l41.5-65.57c3.32-4.7,7.68-8.64,13.07-11.83,5.4-3.18,11.27-4.77,17.64-4.77,8.3,0,16.66,2.63,25.11,7.88,8.44,5.26,17.98,11.07,28.63,17.43,10.65,6.37,22.89,12.18,36.73,17.43,13.83,5.26,30.15,7.88,48.97,7.88,25.45,0,45.23-5.6,59.35-16.81,14.11-11.2,21.16-28.98,21.16-53.33,0-14.11-3.88-25.59-11.62-34.45-7.75-8.85-17.92-16.19-30.5-21.99-12.59-5.81-26.91-10.93-42.95-15.35-16.05-4.42-32.51-9.34-49.39-14.73-16.88-5.4-33.34-12.03-49.38-19.92-16.05-7.88-30.37-18.26-42.95-31.12-12.59-12.86-22.76-28.91-30.5-48.14-7.75-19.23-11.62-42.95-11.62-71.17,0-22.68,4.56-44.82,13.7-66.4,9.13-21.58,22.55-40.81,40.25-57.69,17.7-16.87,39.42-30.36,65.15-40.46,25.73-10.1,55.2-15.15,88.4-15.15,18.53,0,36.58,1.45,54.16,4.36,12.66,2.09,24.85,4.92,36.58,8.45V147.06c0-81.22-65.84-147.06-147.06-147.06H147.06C65.84,0,0,65.84,0,147.06v628.42l96.56-249.46h143.59l234.06,604.65h-108.73c-12.18,0-22-2.83-29.46-8.51-7.47-5.67-13.14-12.93-17.02-21.79l-35.69-105.41H53.4l-35.69,105.41c-3.05,7.75-8.51,14.73-16.39,20.96-.43.34-.88.67-1.32,1v372.81c0,81.22,65.84,147.06,147.06,147.06h1421.62c81.22,0,147.06-65.84,147.06-147.06v-383.25c-7.01,3.6-14.35,6.89-22.06,9.85ZM664.28,1130.68h-140.27v-493.44h-170.15v-111.22h480.57v111.22h-170.15v493.44ZM1236.36,1113.66c-38.6,15.77-81.41,23.66-128.44,23.66s-89.92-7.89-128.65-23.66c-38.74-15.77-71.87-37.56-99.39-65.36-27.53-27.81-48.83-60.52-63.91-98.15-15.08-37.62-22.62-78.29-22.62-122.01s7.54-84.38,22.62-122.01c15.08-37.62,36.38-70.27,63.91-97.94,27.53-27.66,60.65-49.39,99.39-65.16,38.73-15.77,81.61-23.65,128.65-23.65s89.85,7.96,128.44,23.86c38.6,15.91,71.59,37.7,98.98,65.36,27.39,27.67,48.62,60.32,63.7,97.94,15.08,37.63,22.62,78.16,22.62,121.59s-7.54,84.39-22.62,122.01c-15.08,37.63-36.31,70.34-63.7,98.15s-60.38,49.59-98.98,65.36Z"/>
        <path class="cls-3" d="M182.05,696.8c-4.71-14.25-9.41-29.67-14.11-46.27-4.15,16.88-8.58,32.51-13.28,46.9-4.71,14.39-9.13,26.84-13.28,37.35l-55.61,164.76h165.58l-56.02-165.59c-4.15-10.51-8.58-22.89-13.28-37.14Z"/>
      </g>
      <circle class="cls-4" cx="4332.68" cy="592.66" r="65.87"/>
      <path class="cls-3" d="M4363.46,627.66h-8.6c-1.77,0-3.07-.68-3.9-2.05l-18.6-25.6c-.57-.8-1.18-1.38-1.83-1.73-.65-.35-1.66-.52-3.02-.52h-7.35v29.9h-9.65v-71.65h20.25c4.53,0,8.45.46,11.75,1.38,3.3.92,6.02,2.24,8.17,3.98,2.15,1.73,3.74,3.82,4.78,6.27,1.03,2.45,1.55,5.19,1.55,8.23,0,2.53-.4,4.9-1.2,7.1-.8,2.2-1.96,4.18-3.47,5.93-1.52,1.75-3.37,3.24-5.55,4.48-2.18,1.23-4.66,2.17-7.42,2.8,1.23.7,2.3,1.72,3.2,3.05l20.9,28.45ZM4330.36,590.71c2.8,0,5.28-.34,7.42-1.02,2.15-.68,3.95-1.65,5.4-2.9,1.45-1.25,2.54-2.74,3.28-4.48.73-1.73,1.1-3.65,1.1-5.75,0-4.27-1.4-7.48-4.2-9.65-2.8-2.17-7-3.25-12.6-3.25h-10.6v27.05h10.2Z"/>
    </g>
  </g>
</svg>