<?xml version="1.0" encoding="UTF-8"?>
<svg id="Camada_2" xmlns="http://www.w3.org/2000/svg" viewBox="0 0 1717.69 2234.76">
  <defs>
    <style>
      .cls-1 {
        letter-spacing: .18em;
      }

      .cls-2, .cls-3 {
        fill: #e5e4e4;
      }

      .cls-3 {
        font-family: RalewayRoman-Light, Raleway;
        font-size: 150px;
        font-variation-settings: 'wght' 300;
        font-weight: 300;
      }

      .cls-4 {
        letter-spacing: .2em;
      }
    </style>
  </defs>
  <g id="Camada_1-2" data-name="Camada_1">
    <g>
      <text class="cls-3" transform="translate(382.78 1911.27)"><tspan class="cls-4" x="0" y="0">SE</tspan><tspan class="cls-1" x="242.55" y="0">R</tspan><tspan class="cls-4" x="367.2" y="0">VIÇOS</tspan><tspan class="cls-4"><tspan x="-178.95" y="180">FINANCEIROS</tspan></tspan></text>
      <g>
        <path class="cls-2" d="M1586.36,133.46c.73-1.73,1.1-3.65,1.1-5.75,0-4.27-1.4-7.48-4.2-9.65s-7-3.25-12.6-3.25h-10.6v27.05h10.2c2.8,0,5.28-.34,7.42-1.03,2.15-.68,3.95-1.65,5.4-2.9s2.54-2.74,3.27-4.48Z"/>
        <path class="cls-2" d="M1572.68,81.8c-34.08,0-61.71,27.63-61.71,61.71s27.63,61.71,61.71,61.71,61.71-27.63,61.71-61.71-27.63-61.71-61.71-61.71ZM1594.76,178.81c-1.77,0-3.07-.68-3.9-2.05l-18.6-25.6c-.57-.8-1.17-1.38-1.83-1.73-.65-.35-1.66-.52-3.02-.52h-7.35v29.9h-9.65v-71.65h20.25c4.53,0,8.45.46,11.75,1.38,3.3.92,6.02,2.24,8.17,3.97,2.15,1.73,3.74,3.82,4.77,6.28,1.03,2.45,1.55,5.19,1.55,8.22,0,2.53-.4,4.9-1.2,7.1-.8,2.2-1.96,4.18-3.48,5.93s-3.37,3.24-5.55,4.47c-2.18,1.23-4.66,2.17-7.42,2.8,1.23.7,2.3,1.72,3.2,3.05l20.9,28.45h-8.6Z"/>
      </g>
      <g>
        <polygon class="cls-2" points="1206.55 1339.06 1251.45 1339.06 1229 1282.9 1206.55 1339.06"/>
        <path class="cls-2" d="M712.77,1283.14c-3.47-2.29-7.28-3.44-11.44-3.44h-35.36v51.84h36.32c4.48,0,8.37-1.23,11.68-3.68,3.31-2.45,5.87-5.65,7.68-9.6,1.81-3.94,2.72-8.21,2.72-12.8s-1.07-9.01-3.2-12.96c-2.14-3.95-4.94-7.06-8.4-9.36Z"/>
        <path class="cls-2" d="M184,696.79c-4.71-14.25-9.41-29.67-14.11-46.27-4.15,16.88-8.58,32.51-13.28,46.89-4.71,14.39-9.13,26.84-13.28,37.35l-55.61,164.76h165.58l-56.02-165.59c-4.15-10.51-8.58-22.89-13.28-37.14Z"/>
        <path class="cls-2" d="M1234.98,686.63c-14.53-16.6-32.31-29.32-53.33-38.18-21.03-8.85-44.96-13.28-71.79-13.28s-51.25,4.43-72.42,13.28c-21.17,8.86-39.01,21.58-53.54,38.18-14.52,16.6-25.67,36.87-33.41,60.8-7.75,23.93-11.62,50.84-11.62,80.72s3.87,57.21,11.62,81.13c7.74,23.93,18.88,44.2,33.41,60.8,14.52,16.6,32.37,29.26,53.54,37.97s45.3,13.07,72.42,13.07,50.77-4.36,71.79-13.07c21.02-8.71,38.8-21.37,53.33-37.97,14.52-16.6,25.66-36.86,33.41-60.8,7.74-23.93,11.62-50.97,11.62-81.13s-3.88-56.78-11.62-80.72c-7.75-23.93-18.88-44.2-33.41-60.8Z"/>
        <path class="cls-2" d="M1669.28,635.79c-11.9-4.01-25.46-6.02-40.67-6.02-26.29,0-45.86,5.6-58.72,16.81-12.86,11.21-19.3,26.35-19.3,45.44,0,12.18,3.87,22.27,11.62,30.29,7.74,8.03,17.91,14.94,30.5,20.75,12.59,5.81,26.98,11.14,43.16,15.98,16.18,4.84,32.71,10.24,49.59,16.19,10.88,3.84,21.63,8.12,32.23,12.82v-129.77c-5.16-2.8-10.71-5.8-16.66-9-9.27-4.98-19.85-9.47-31.75-13.49Z"/>
        <path class="cls-2" d="M1695.63,1121.76c-26.98,10.38-57.62,15.56-91.92,15.56-18.82,0-37.97-1.94-57.48-5.81s-38.39-9.34-56.65-16.39c-18.26-7.05-35.42-15.42-51.46-25.11-16.05-9.68-30.02-20.47-41.92-32.37l41.5-65.57c3.32-4.7,7.68-8.64,13.07-11.83,5.4-3.18,11.27-4.77,17.64-4.77,8.3,0,16.66,2.63,25.11,7.88,8.44,5.26,17.98,11.07,28.63,17.43,10.65,6.37,22.89,12.18,36.73,17.43,13.83,5.26,30.15,7.88,48.97,7.88,25.45,0,45.23-5.6,59.35-16.81,14.11-11.2,21.16-28.98,21.16-53.33,0-14.11-3.88-25.59-11.62-34.45-7.75-8.85-17.92-16.19-30.5-21.99-12.59-5.81-26.91-10.93-42.95-15.36-16.05-4.42-32.51-9.34-49.39-14.73-16.88-5.4-33.34-12.04-49.38-19.92-16.05-7.88-30.37-18.26-42.95-31.12-12.59-12.87-22.76-28.91-30.5-48.14-7.75-19.23-11.62-42.95-11.62-71.17,0-22.68,4.56-44.82,13.7-66.4,9.13-21.58,22.55-40.81,40.25-57.69,17.7-16.87,39.42-30.36,65.15-40.46,25.73-10.1,55.2-15.15,88.4-15.15,18.53,0,36.58,1.45,54.16,4.36,12.66,2.09,24.85,4.92,36.58,8.45V147.06c0-81.22-65.84-147.06-147.06-147.06H149.01C67.79,0,1.95,65.84,1.95,147.06v628.41l96.56-249.46h143.59l234.06,604.65h-108.73c-12.18,0-22-2.83-29.46-8.51-7.47-5.67-13.14-12.93-17.02-21.79l-35.69-105.41H55.35l-35.69,105.41c-3.05,7.75-8.51,14.73-16.39,20.96-.43.34-.88.67-1.32,1v372.81c0,81.22,65.84,147.06,147.06,147.06h1421.62c81.22,0,147.06-65.84,147.06-147.06v-383.25c-7.01,3.6-14.35,6.89-22.06,9.85ZM1572.68,75.76c37.42,0,67.75,30.33,67.75,67.75s-30.33,67.75-67.75,67.75-67.75-30.33-67.75-67.75,30.33-67.75,67.75-67.75ZM318.13,1372.18c-4.91,3.95-10.38,6.94-16.4,8.96-6.03,2.03-11.92,3.04-17.68,3.04-7.79,0-14.94-1.68-21.44-5.04-6.51-3.36-12.13-7.84-16.88-13.44-4.75-5.6-8.4-11.89-10.96-18.88-2.56-6.98-3.84-14.05-3.84-21.2s1.2-13.73,3.6-20.4c2.4-6.67,5.89-12.75,10.48-18.24,4.58-5.49,10.24-9.87,16.96-13.12,6.72-3.25,14.35-4.88,22.88-4.88,10.13,0,18.8,2.32,26,6.96,7.2,4.64,12.5,10.59,15.92,17.84l-8.8,5.44c-2.45-5.01-5.55-8.99-9.28-11.92-3.73-2.93-7.71-5.04-11.92-6.32-4.21-1.28-8.4-1.92-12.56-1.92-6.83,0-12.85,1.36-18.08,4.08-5.23,2.72-9.63,6.35-13.2,10.88-3.58,4.53-6.27,9.6-8.08,15.2-1.81,5.6-2.72,11.28-2.72,17.04,0,6.29,1.06,12.32,3.2,18.08,2.13,5.76,5.12,10.86,8.96,15.28,3.84,4.43,8.34,7.95,13.52,10.56,5.17,2.62,10.8,3.92,16.88,3.92,4.27,0,8.64-.75,13.12-2.24,4.48-1.49,8.67-3.79,12.56-6.88,3.89-3.09,7.01-7.09,9.36-12l9.28,4.8c-2.35,5.66-5.97,10.46-10.88,14.4ZM355.81,637.24v-111.22h480.57v111.22h-170.15v493.44h-140.27v-493.44h-170.15ZM527.41,1383.38l-14.2-35.52h-51.93l-14.2,35.52h-12l47.52-113.6h9.44l47.2,113.6h-11.84ZM731.49,1322.98c-2.72,5.5-6.54,9.95-11.44,13.36-4.91,3.42-10.67,5.12-17.28,5.12h-36.8v41.92h-11.2v-113.6h47.04c4.91,0,9.41,1.01,13.52,3.04,4.1,2.03,7.65,4.78,10.64,8.24,2.98,3.47,5.33,7.31,7.04,11.52,1.71,4.21,2.56,8.51,2.56,12.88,0,6.19-1.36,12.03-4.08,17.52ZM864.68,1383.38h-11.2v-113.6h11.2v113.6ZM1073,1279.7h-40.48v103.68h-11.2v-103.68h-40.48v-9.92h92.16v9.92ZM1269.16,1383.38l-14.2-35.52h-51.93l-14.2,35.52h-12l47.52-113.6h9.44l47.2,113.6h-11.84ZM1238.3,1113.66c-38.6,15.77-81.41,23.66-128.44,23.66s-89.92-7.89-128.65-23.66c-38.74-15.77-71.87-37.56-99.39-65.36-27.53-27.81-48.83-60.52-63.91-98.15-15.08-37.62-22.62-78.29-22.62-122.01s7.54-84.38,22.62-122.01c15.08-37.62,36.38-70.27,63.91-97.94,27.53-27.66,60.65-49.39,99.39-65.16,38.73-15.77,81.61-23.65,128.65-23.65s89.85,7.96,128.44,23.86c38.6,15.91,71.59,37.7,98.98,65.36,27.39,27.67,48.62,60.32,63.7,97.94,15.08,37.63,22.62,78.16,22.62,121.59s-7.54,84.39-22.62,122.01c-15.08,37.63-36.31,70.34-63.7,98.15-27.39,27.8-60.38,49.59-98.98,65.36ZM1473.32,1383.38h-76.8v-113.6h11.2v103.68h65.6v9.92Z"/>
        <polygon class="cls-2" points="464.8 1339.06 509.69 1339.06 487.25 1282.9 464.8 1339.06"/>
      </g>
    </g>
  </g>
</svg>